# xmcd
#
# Track frame offsets:
# 150
# 16277
# 35779
# 66081
# 81683
#
# Disc length: 1264 seconds
#
#
# Revision: 0
# Processed by: cddbd v1.5.2PL0 Copyright (c) Steve Scherf et al.
# Submitted via: HACP 1.20
#
DISCID=4104ee05
DTITLE=Dr. Freak Out - Dr. Freak Out
DYEAR=2018
DGENRE=Bluesrock
TTITLE0=Cheatin on you
TTITLE1=Polk Salad Annie
TTITLE2=Love is gettin outta control
TTITLE3=Big Nick
TTITLE4=Jenny, Jenny
EXTD=
EXTT0=
EXTT1=
EXTT2=
EXTT3=
EXTT4=
PLAYORDER=
